<svg xmlns="http://www.w3.org/2000/svg" viewBox="0 0 69.92 48.99"><title>footer-logo</title><path d="M70.27 1.64a20.32 20.32 0 0 1-10.06 5.7.88.88 0 0 0-.57.43c-.43.8-.87 1.63-1.31 2.48a.25.25 0 0 0 .25.36 21.36 21.36 0 0 0 10.64-3.93c2.09-1.62 2.11-6.17 1.05-5.04zM62.35 18.07c-3.81 0-6.61 3.41-7.48 6a8.82 8.82 0 0 0-.49 3.9 5.31 5.31 0 0 1-2.86.89c-2.4 0-1.34-3.45-.71-5 .76-1.86 8.19-18.06 11.8-22.5 1.17-1.45-2.82-.89-4 .41a33.24 33.24 0 0 0-3.61 6.36 38.55 38.55 0 0 1-4.28 0c-5.63-.25-9.42-2.7-15.24-2.7a14.29 14.29 0 0 0-5 .81c-1.56-2.41-5-3.39-7.4-3.39-4.47 0-13.93 2.81-11 11.53 2 6.14 5.92 10.66 8.64 14.76-1.47.3-3.16.59-5.13.89-10.1 1.56-14 5.32-14.47 11-.27 3.56 1.88 8.47 10.24 8.47 7.43 0 16-4.62 16-12a11.54 11.54 0 0 0-2.4-6.73.44.44 0 0 0-.49-.17c-.64.18-1.34.36-2.13.54a.28.28 0 0 0-.18.41 11 11 0 0 1 1.51 5.17c0 5.33-6.14 9.79-11.87 9.95-4.64.13-7.56-1.75-8.07-5.16-.48-2.79 1.17-7.59 10.27-9.51 3.11-.64 5.54-1.12 7.49-1.55 1.07-.24 2-.46 2.81-.69a11.42 11.42 0 0 0 4.45-2.11 3.19 3.19 0 0 0 3.15 3.25 6.62 6.62 0 0 0 3.44-1.51 3.42 3.42 0 0 0 1.93 1.34 5.38 5.38 0 0 0 4.23-1.27 2.5 2.5 0 0 0 2.5 1.45 5.53 5.53 0 0 0 4.12-2 3.45 3.45 0 0 0 3 1.85 5.5 5.5 0 0 0 3.59-1.76c.49 1 1.48 1.7 3.33 1.7a6.79 6.79 0 0 0 6-3.26.4.4 0 0 0-.56-.55 8.14 8.14 0 0 1-4.32 1.77c-2.73 0-2.17-2.89-1.54-4.44 1-2.43 4.91-6 5.91-4 .59 1.16-2 3.39-4.32 4.62a1.81 1.81 0 0 0-1 1.3v.19a.21.21 0 0 0 .24.25c1.59-.22 7.44-1.68 7.88-5.41.02.01.39-3.1-3.98-3.1zm-14.13 6.69a7.19 7.19 0 0 0-.4 3c-1.75 2-4.79 2-4.65.43.1-1.13 2.07-5.52 2.32-6s1-1.73-.09-1.61c-1.74.19-2.79 2.75-3.65 5.3a3.6 3.6 0 0 1-2.36 2.2c-1.79.46-2.94-.52-1-4.56a7.09 7.09 0 0 1 6.42-4 1.24 1.24 0 0 0 1-.34c.42-.55 1.22-1.42-1-1.28-8.15.51-9.73 6.78-10 8.48a4.07 4.07 0 0 0 .12 2 6.3 6.3 0 0 1-2.11.84c-2.11.36-1.94-2.23-1.64-3.44.56-2.53 2.82-9.62 7.27-14.78.85-1-2.53-1-3.45-.06-2.14 2.06-4.73 8.06-6 14.78a13.94 13.94 0 0 1-5.78 2.84c-2.57-3.23-5.77-6.78-7.74-12.3a8.49 8.49 0 0 1-.16-6.07c1-3 5.1-4.57 8.32-4.57 2.49 0 4 .74 4.79 1.66a7 7 0 0 0-3 3.73 2.79 2.79 0 0 0 1.16 3.18c1 .5 3.7.43 4.55-3.41a7 7 0 0 0 .17-1.83.25.25 0 0 0-.31-.23 8.83 8.83 0 0 0-1.34.54.35.35 0 0 0-.19.34 2.88 2.88 0 0 1-.07 1c-.46 1.46-1.35 2.13-1.95 2.1-.79 0-.67-1-.6-1.35a4.75 4.75 0 0 1 2.12-2.58l.28-.17a8.54 8.54 0 0 1 1.9-.8h.12a14.55 14.55 0 0 1 3.94-.48c5.63 0 8.94 2.74 16.35 3.36.75.06 1.47.1 2.17.12a143.38 143.38 0 0 0-5.51 13.96z" transform="translate(-1.04 -.51)" fill="#fff"/><path d="M33 33.83a1.66 1.66 0 0 1 1.19.46.09.09 0 0 1 0 .14l-.3.31a.08.08 0 0 1-.12 0 1.16 1.16 0 0 0-.75-.29 1.14 1.14 0 0 0 0 2.27 1.18 1.18 0 0 0 .75-.28.09.09 0 0 1 .12 0l.3.31a.09.09 0 0 1 0 .13 1.68 1.68 0 0 1-1.19.47 1.76 1.76 0 1 1 0-3.52zM35.76 34a.09.09 0 0 1 .09-.09h1.4a1.06 1.06 0 0 1 1.07 1.05 1.08 1.08 0 0 1-.72 1l.67 1.24a.09.09 0 0 1-.08.14h-.52a.08.08 0 0 1-.08 0l-.65-1.34h-.54v1.25a.1.1 0 0 1-.09.09h-.46a.09.09 0 0 1-.09-.09v-3.25zm1.44 1.47a.5.5 0 0 0 .48-.5.49.49 0 0 0-.48-.47h-.8v1h.8zM39.83 34a.09.09 0 0 1 .09-.09h2a.09.09 0 0 1 .08.09v.4a.09.09 0 0 1-.09.09h-1.44v.8h1.21a.1.1 0 0 1 .09.09v.41a.09.09 0 0 1-.09.09h-1.21v.86h1.45a.09.09 0 0 1 .09.09v.4a.09.09 0 0 1-.09.09h-2a.09.09 0 0 1-.09-.09v-3.23zM43.19 37.18l1.52-3.3a.09.09 0 0 1 .08-.05.08.08 0 0 1 .08.05l1.51 3.3a.09.09 0 0 1-.08.13h-.37a.14.14 0 0 1-.14-.1l-.24-.53h-1.47l-.24.53a.15.15 0 0 1-.14.1h-.42a.09.09 0 0 1-.09-.13zm2.12-1l-.49-1.08-.48 1.08h1zM47.93 34.46h-.75a.09.09 0 0 1-.09-.09v-.37a.09.09 0 0 1 .09-.09h2.14a.09.09 0 0 1 .09.09v.4a.09.09 0 0 1-.09.09h-.75v2.75a.1.1 0 0 1-.09.09h-.48a.1.1 0 0 1-.09-.09v-2.78zM50.81 34a.1.1 0 0 1 .09-.09h.46a.1.1 0 0 1 .09.09v3.24a.1.1 0 0 1-.09.09h-.46a.1.1 0 0 1-.09-.09v-3.24zM52.75 34a.09.09 0 0 1 .08-.13h.5a.09.09 0 0 1 .08.05l.95 2.08.94-2.11a.09.09 0 0 1 .08-.05h.5a.09.09 0 0 1 .12.16l-1.52 3.3a.09.09 0 0 1-.08.05.09.09 0 0 1-.08-.05zM57.15 34a.09.09 0 0 1 .09-.09h2a.09.09 0 0 1 .09.09v.4a.09.09 0 0 1-.09.09h-1.45v.8h1.21a.1.1 0 0 1 .09.09v.41a.09.09 0 0 1-.09.09h-1.21v.86h1.45a.09.09 0 0 1 .09.09v.4a.09.09 0 0 1-.09.09h-2a.09.09 0 0 1-.09-.09v-3.23z" transform="translate(-1.04 -.51)" fill="#2ab196"/></svg>