<?xml version="1.0" encoding="utf-8"?>
<!-- Generator: Adobe Illustrator 19.2.1, SVG Export Plug-In . SVG Version: 6.00 Build 0)  -->
<svg version="1.1" id="Layer_1" xmlns="http://www.w3.org/2000/svg" xmlns:xlink="http://www.w3.org/1999/xlink" x="0px" y="0px"
	 viewBox="0 0 215.6 150" style="enable-background:new 0 0 215.6 150;" xml:space="preserve">
<style type="text/css">
	.st0{fill:#FFFFFF;}
	.st1{fill:#2AB196;}
	.st2{opacity:0.34;}
	.st3{fill:none;stroke:#2AB196;stroke-width:0.697;stroke-linecap:round;stroke-linejoin:round;}
</style>
<title>hero-med</title>
<g>
	<path class="st0" d="M84.8,50c-3.1,3.2-7,5.4-11.4,6.4c-0.3,0.1-0.5,0.2-0.6,0.5c-0.5,0.9-1,1.8-1.5,2.8c-0.1,0.1,0,0.3,0.1,0.4
		c0.1,0,0.1,0,0.2,0c5.4-0.6,9.5-2.4,12-4.4C85.9,53.9,86,48.7,84.8,50z M75.8,68.6c-4.3,0-7.5,3.9-8.5,6.7
		c-0.5,1.4-0.7,2.9-0.5,4.4c-1,0.6-2.1,1-3.3,1c-2.7,0-1.5-3.9-0.8-5.6C63.6,73,72,54.7,76.1,49.7c1.3-1.6-3.2-1-4.5,0.5
		c-0.9,1-2.4,3.7-4.1,7.2c-1.6,0.1-3.2,0.1-4.8,0c-6.3-0.3-10.7-3.1-17.2-3.1c-1.9,0-3.8,0.3-5.6,0.9c-1.8-2.7-5.6-3.8-8.4-3.8
		c-5.1,0-15.7,3.2-12.5,13c2.3,6.9,6.7,12,9.8,16.7c-1.7,0.3-3.6,0.7-5.8,1C11.5,83.9,7,88.1,6.5,94.5c-0.3,4,2.1,9.6,11.6,9.6
		c8.4,0,18.1-5.2,18.1-13.6c0-2.9-1.1-5.3-2.7-7.6c-0.1-0.2-0.3-0.3-0.5-0.2c-0.7,0.2-1.5,0.4-2.4,0.6c-0.2,0-0.3,0.2-0.2,0.4
		c0,0,0,0.1,0,0.1c1,1.8,1.6,3.8,1.7,5.8c0,6-6.9,11.1-13.4,11.2c-5.2,0.1-8.5-2-9.1-5.8c-0.5-3.2,1.4-8.6,11.7-10.7
		c3.5-0.7,6.3-1.3,8.5-1.8c1.2-0.3,2.3-0.5,3.2-0.8c2.3-0.6,3.7-1.3,5-2.4c0,2,1.6,3.6,3.6,3.6c0,0,0,0,0,0l0,0
		c1.4-0.2,2.8-0.8,3.9-1.7c0.5,0.7,1.3,1.3,2.2,1.5c1.6,0.4,3.5-0.4,4.8-1.4c0.4,1,1.4,1.6,2.8,1.6c1.8,0,3.5-0.9,4.7-2.3
		c0.7,1.3,2,2.1,3.4,2.1c1.4,0,2.9-0.8,4-1.9c0.5,1.1,1.7,1.9,3.8,1.9c2.8,0.1,5.3-1.3,6.8-3.7c0.1-0.2,0.1-0.5-0.1-0.6
		c-0.2-0.1-0.4-0.1-0.5,0c-1.3,0.9-3.1,2-4.9,2c-3.1,0-2.4-3.3-1.7-5c1.1-2.7,5.6-6.8,6.7-4.5c0.7,1.3-2.2,3.8-4.9,5.2
		c-0.6,0.3-1,0.8-1.1,1.5l0,0.2c0,0.1,0.1,0.3,0.2,0.3c0,0,0,0,0,0h0.1c1.8-0.2,8.4-1.9,8.9-6.1C80.3,72.1,80.7,68.6,75.8,68.6
		L75.8,68.6L75.8,68.6z M59.8,76.1c-0.4,1.1-0.5,2.2-0.5,3.4c-2,2.3-5.4,2.3-5.3,0.5c0.1-1.3,2.3-6.2,2.6-6.8c0.3-0.6,1.2-2-0.1-1.8
		c-2,0.2-3.2,3.1-4.1,6c-0.4,1.2-1.4,2.1-2.7,2.5c-2,0.5-3.3-0.6-1.1-5.2c2.2-4.6,6.8-4.4,7.3-4.5c0.4-0.1,0.8,0,1.1-0.4
		c0.5-0.6,1.4-1.6-1.2-1.4c-9.2,0.6-11,7.7-11.3,9.6c-0.1,0.8-0.1,1.5,0.1,2.3c-0.7,0.5-1.5,0.8-2.4,0.9c-2.4,0.4-2.2-2.5-1.9-3.9
		c0.7-2.9,3.3-10.9,8.3-16.8c1-1.1-2.9-1.1-3.9-0.1c-2.4,2.4-5.3,9.1-6.8,16.7c-1.7,1.5-3.7,2.4-6.5,3.2c-2.9-3.6-6.5-7.7-8.8-13.9
		c-0.9-2.5-1-4.6-0.2-6.9c1.1-3.4,5.8-5.2,9.4-5.2c2.8,0,4.5,0.8,5.4,1.9c-2.2,1.4-3.2,3.3-3.4,4.2c-0.3,1.4,0.1,3,1.3,3.6
		c1.2,0.6,4.2,0.5,5.1-3.9c0.2-0.7,0.2-1.4,0.2-2.1c0-0.2-0.1-0.3-0.3-0.3c0,0,0,0,0,0h-0.1c-0.5,0.2-1,0.4-1.5,0.6
		c-0.1,0.1-0.2,0.2-0.2,0.4c0,0.4,0,0.8-0.1,1.2c-0.5,1.6-1.5,2.4-2.2,2.4c-0.9,0-0.8-1.2-0.7-1.5c0.4-1.2,1.3-2.3,2.4-2.9l0.3-0.2
		c0.7-0.4,1.4-0.7,2.2-0.9l0.1,0c1.5-0.4,2.9-0.6,4.5-0.5c6.4,0,10.1,3.1,18.5,3.8c0.8,0.1,1.7,0.1,2.5,0.1
		C63.7,65.5,61.6,70.8,59.8,76.1L59.8,76.1L59.8,76.1z"/>
	<path class="st1" d="M42.7,86.4c0.5,0,1,0.2,1.3,0.5c0,0,0,0.1,0,0.1c0,0,0,0,0,0l0,0l-0.3,0.3c0,0-0.1,0-0.1,0l0,0
		c-0.2-0.2-0.5-0.3-0.9-0.3c-0.7,0-1.3,0.6-1.3,1.3s0.6,1.3,1.3,1.3c0.3,0,0.6-0.1,0.8-0.3c0,0,0.1,0,0.1,0l0.3,0.4c0,0,0,0.1,0,0.1
		c0,0,0,0,0,0l0,0c-0.4,0.4-0.8,0.5-1.3,0.5c-1.1,0.1-2-0.8-2.1-1.9c-0.1-1.1,0.8-2,1.9-2.1C42.5,86.4,42.6,86.4,42.7,86.4
		L42.7,86.4L42.7,86.4z M45.7,86.6c0-0.1,0-0.1,0.1-0.1c0,0,0,0,0,0h1.6c0.7,0,1.2,0.5,1.2,1.2l0,0c0,0.5-0.3,1-0.8,1.1l0.8,1.4
		c0,0,0,0.1,0,0.1c0,0,0,0-0.1,0h-0.6c0,0-0.1,0-0.1,0l-0.8-1.5h-0.6v1.4c0,0.1,0,0.1-0.1,0.1h-0.5c-0.1,0-0.1,0-0.1-0.1l0,0l0,0
		L45.7,86.6L45.7,86.6L45.7,86.6z M47.4,88.2c0.3,0,0.5-0.2,0.5-0.5c0-0.3-0.2-0.5-0.5-0.5h-0.9v1.1H47.4L47.4,88.2z M50.3,86.6
		c0-0.1,0-0.1,0.1-0.1c0,0,0,0,0,0h2.2c0.1,0,0.1,0,0.1,0.1l0,0l0,0V87c0,0.1,0,0.1-0.1,0.1c0,0,0,0,0,0h-1.6V88h1.4
		c0.1,0,0.1,0,0.1,0.1v0.5c0,0.1,0,0.1-0.1,0.1c0,0,0,0,0,0h-1.4v1h1.6c0.1,0,0.1,0,0.1,0.1l0,0l0,0v0.5c0,0.1,0,0.1-0.1,0.1
		c0,0,0,0,0,0h-2.2c-0.1,0-0.1,0-0.1-0.1l0,0l0,0L50.3,86.6L50.3,86.6L50.3,86.6z M54.1,90.2l1.7-3.7c0,0,0.1-0.1,0.1-0.1H56
		c0,0,0.1,0,0.1,0.1l1.7,3.7c0,0,0,0.1,0,0.1c0,0,0,0-0.1,0h-0.5c-0.1,0-0.1,0-0.2-0.1l-0.3-0.6h-1.7l-0.3,0.6
		c0,0.1-0.1,0.1-0.2,0.1h-0.5C54.2,90.3,54.2,90.3,54.1,90.2C54.2,90.2,54.2,90.2,54.1,90.2L54.1,90.2z M56.5,89L56,87.8L55.4,89
		H56.5z M59.5,87.1h-0.8c-0.1,0-0.1,0-0.1-0.1l0,0l0,0v-0.5c0-0.1,0-0.1,0.1-0.1c0,0,0,0,0,0h2.4c0.1,0,0.1,0,0.1,0.1l0,0l0,0V87
		c0,0.1,0,0.1-0.1,0.1c0,0,0,0,0,0h-0.8v3.1c0,0.1,0,0.1-0.1,0.1h-0.5c-0.1,0-0.1,0-0.1-0.1L59.5,87.1L59.5,87.1L59.5,87.1z
		 M62.7,86.6c0-0.1,0-0.1,0.1-0.1h0.5c0.1,0,0.1,0,0.1,0.1v3.7c0,0.1,0,0.1-0.1,0.1h-0.5c-0.1,0-0.1,0-0.1-0.1V86.6z M64.9,86.6
		c0,0,0-0.1,0-0.1c0,0,0,0,0.1,0h0.5c0,0,0.1,0,0.1,0.1l1.1,2.4h0l1.1-2.4c0,0,0.1-0.1,0.1-0.1h0.5c0.1,0,0.1,0,0.1,0.1
		c0,0,0,0,0,0.1l-1.7,3.7c0,0-0.1,0.1-0.1,0.1h-0.1c0,0-0.1,0-0.1-0.1L64.9,86.6z M69.9,86.6c0-0.1,0-0.1,0.1-0.1c0,0,0,0,0,0h2.2
		c0.1,0,0.1,0,0.1,0.1l0,0l0,0V87c0,0.1,0,0.1-0.1,0.1c0,0,0,0,0,0h-1.6V88H72c0.1,0,0.1,0,0.1,0.1v0.5c0,0.1,0,0.1-0.1,0.1
		c0,0,0,0,0,0h-1.4v1h1.6c0.1,0,0.1,0,0.1,0.1l0,0l0,0v0.5c0,0.1,0,0.1-0.1,0.1c0,0,0,0,0,0H70c-0.1,0-0.1,0-0.1-0.1l0,0l0,0
		L69.9,86.6L69.9,86.6L69.9,86.6z"/>
	<g class="st2">
		<path class="st3" d="M44.7,36.5H6l11.8-18.9l5.2,5.1l2.2-2.5l4.9,4.7l2.8-7.1L44.7,36.5z M25.4,4.8l6.9,11.7l-2.6,6.3l-4.4-4.3
			L23,21.1l-4.5-4.5L25.4,4.8z M25.4,7.8l-4.9,8.5l2.5,2.5l2.2-2.5l4,3.8l1.5-3.5L25.4,7.8L25.4,7.8L25.4,7.8z M100.5,145.1H61.2
			L71.4,129l6.1-1.2l3.1,4.5l3.2-4.4l6.8,1.6L100.5,145.1L100.5,145.1L100.5,145.1z M80.9,113.3l8.8,14.6l-6.3-1.3l-2.8,3.7
			l-2.6-3.7l-5.8,1.2L80.9,113.3L80.9,113.3L80.9,113.3z M80.9,116.3l-5.5,9.2l3.3-0.7l2,2.8l2.1-2.8l3.8,0.8L80.9,116.3L80.9,116.3
			L80.9,116.3z M61.5,37l10.7-18.1c0.3,0.4,0.7,0.9,1,1.3l-9,15.3h33.3l-7.6-12.8c0.1-0.1,0.3-0.2,0.4-0.2c0.3-0.2,0.7-0.4,0.9-0.6
			l9,15.2L61.5,37L61.5,37z M82.6,18.8c-1.9-0.2-2.6,4.9-4.5,4.6c-1.4-0.4-4-3.9-5.3-5.5l8-13.7l9.8,16.6c-0.3,0.2-0.6,0.4-0.9,0.6
			C87.4,23,83.9,18.9,82.6,18.8L82.6,18.8L82.6,18.8z M6,145.1l7.6-12.4h1.8l-6.6,10.9H42l-5.4-9l2.3,0.8l5.9,9.7L6,145.1L6,145.1z
			 M30.1,131l-3.3,3.9l-3.6-3.8l-2.9,2.7l-2.6-2.2h-3.5l11.2-18.4l12.6,20.7L30.1,131L30.1,131L30.1,131z M154.2,36.1h-38.8
			l10.7-16.9l4.6-1.1l1.3,4.2l3.6-3.6l4,5.2l0.8-5.6h2.5L154.2,36.1L154.2,36.1L154.2,36.1z M134.8,5.1l7.6,12h-2.9l-0.5,3.9
			l-3.3-4.1l-3.3,3.2l-1-3.3l-4.7,1.2L134.8,5.1z M134.8,8l-4.7,7.6l2.3-0.6l0.7,2.3l2.6-2.6l2.1,2.6l0.2-1.7h1.5L134.8,8L134.8,8
			L134.8,8z"/>
		<path class="st3" d="M154.2,90.9h-38.9l19.3-32.1L154.2,90.9z M134.7,61.9l-7.6,13.2c0.3,0,0.7,0,1-0.2c0.8-0.3,1.4-0.8,2.1-1.4
			l1.1-0.9l0.2,1.4l0.4,2.7c1.2-0.3,1.9-1.5,2.6-2.6c0.8-1.3,1.5-2.5,2.9-2.6c0.7,0,1.1,0.6,1.6,1.4c0.7,1.1,1.8,2.9,4.1,3
			L134.7,61.9L134.7,61.9L134.7,61.9z"/>
		<path class="st3" d="M190.3,113.3l6.1,10.6l-3.1,2.5l-1.9-1.1l-2.7,3.5l-4.4-5.1L190.3,113.3L190.3,113.3L190.3,113.3z
			 M190.3,116.4l-4.1,7.1l2.5,2.8l2.3-3.1l2.2,1.3l1.2-1L190.3,116.4L190.3,116.4L190.3,116.4z M209.6,145.1H171l12.7-20.3l5.1,5.7
			l2.9-3.7l1.8,1l3.6-2.9L209.6,145.1L209.6,145.1z"/>
		<path class="st3" d="M170.9,36.3l4.9-7.9c0.9-0.4,1.8-0.9,2.7-1.4l-4.8,7.7h33.2l-4.1-6.7l3.1,2l3.8,6.2L170.9,36.3L170.9,36.3
			L170.9,36.3z M201.4,25.8l-7-6.7c-0.4-0.4-1,5.2-1.5,5.1l-2.7-8.1l-2.5,5.1c-0.2,0.4-1.6-3.2-1.6-3.2s-2.2,2.8-4.1,4.7
			c-0.7,0.6-1.4,1.3-2,2c-0.2,0.2-0.4,0.3-0.7,0.5c-0.8,0.5-1.6,1-2.4,1.5l13.4-21.7l14.2,22.9L201.4,25.8L201.4,25.8L201.4,25.8z"
			/>
		<path class="st3" d="M170.9,91l6.2-10.3l2.9-1.9l-6.4,10.6h33.3l-9-15l0.9-1.5l10.8,18H170.9L170.9,91z M196.6,75.1l-2.1-1.3
			l-1.8,2.5l-2.8-3.2l-2.1,3.9l-2.2-3l-7.2,4.6l11.9-19.8l7.9,13.1L196.6,75.1L196.6,75.1L196.6,75.1z"/>
		<path class="st3" d="M114.9,145.8l6.3-10.4l8.9-7.4l5.2,6.9l4.1-7l4.2,3.6l1.1-2.8l10.2,17H114.9z M123.6,131.4l11.2-18.7
			l8.7,14.4l-0.7,1.8l-4-3.4l-3.8,6.6l-4.7-6.3L123.6,131.4L123.6,131.4L123.6,131.4z"/>
	</g>
</g>
</svg>
