<svg xmlns="http://www.w3.org/2000/svg" viewBox="0 0 681.88 261.77"><title>hero</title><path d="M154.52 89.35a42.37 42.37 0 0 1-21 11.87 1.84 1.84 0 0 0-1.18.91c-.91 1.67-1.82 3.4-2.74 5.16a.51.51 0 0 0 .51.75c10.05-1.17 17.46-4.49 22.19-8.17 4.38-3.38 4.43-12.87 2.22-10.52zM138 123.62c-7.94 0-13.77 7.11-15.59 12.45a18.39 18.39 0 0 0-1 8.14 11.07 11.07 0 0 1-6 1.85c-5 0-2.79-7.18-1.47-10.41 1.59-3.89 17.12-37.61 24.6-46.88 2.44-3-5.87-1.85-8.39.85-1.67 1.79-4.45 6.82-7.55 13.27a80.36 80.36 0 0 1-8.93.08c-11.67-.52-19.67-5.63-31.76-5.63a29.79 29.79 0 0 0-10.38 1.66c-3.25-5-10.34-7.08-15.42-7.08-9.32 0-29 5.85-23 24 4.24 12.8 12.35 22.22 18 30.76-3.07.63-6.59 1.23-10.69 1.86-21.06 3.24-29.27 11.08-30.17 22.85-.56 7.42 3.91 17.67 21.35 17.67 15.49 0 33.38-9.62 33.38-25 0-5.36-2-9.72-5-14a.92.92 0 0 0-1-.36c-1.33.38-2.8.75-4.44 1.14a.58.58 0 0 0-.38.85 22.91 22.91 0 0 1 3.14 10.78c0 11.11-12.8 20.42-24.75 20.74-9.66.26-15.76-3.64-16.83-10.76-.88-5.84 2.54-15.86 21.52-19.79 6.48-1.34 11.55-2.33 15.62-3.23 2.23-.49 4.16-1 5.85-1.44 4.13-1.17 6.91-2.43 9.28-4.41a6.64 6.64 0 0 0 6.57 6.73 13.8 13.8 0 0 0 7.18-3.16 7.14 7.14 0 0 0 4 2.8c3 .7 6.46-.8 8.82-2.66.82 1.9 2.6 3 5.22 3a11.53 11.53 0 0 0 8.59-4.19 7.2 7.2 0 0 0 6.3 3.85c2.66 0 5.3-1.55 7.43-3.55 1 2.07 3.09 3.55 6.93 3.55 7 0 10.46-3.79 12.51-6.8a.83.83 0 0 0-1.17-1.14c-2.38 1.71-5.8 3.68-9 3.68-5.69 0-4.51-6-3.21-9.26 2-5.07 10.24-12.51 12.33-8.38 1.22 2.43-4.14 7.07-9 9.64a3.78 3.78 0 0 0-2 2.7l-.07.39a.44.44 0 0 0 .5.52c3.32-.46 15.5-3.51 16.44-11.29-.02.08.76-6.39-8.36-6.39zm-29.47 13.94a15 15 0 0 0-.84 6.24c-3.65 4.16-10 4.16-9.69.9.21-2.35 4.32-11.51 4.84-12.56s2.17-3.61-.19-3.36c-3.63.39-5.83 5.74-7.61 11.05a7.5 7.5 0 0 1-4.92 4.58c-3.74 1-6.13-1.09-2.07-9.51s12.63-8.11 13.39-8.24 1.52 0 2.09-.72c.87-1.16 2.55-3-2.16-2.67-17 1.06-20.29 14.14-20.93 17.68a8.48 8.48 0 0 0 .25 4.22 13.14 13.14 0 0 1-4.4 1.75c-4.39.75-4.05-4.64-3.43-7.18 1.33-5.35 6-20.14 15.31-31 1.77-2.06-5.28-2-7.2-.11-4.45 4.47-9.85 16.82-12.46 30.88-3.08 2.68-6.74 4.47-12.05 5.93-5.36-6.73-12-14.14-16.14-25.65-1.68-4.7-1.78-8.4-.33-12.64 2.11-6.19 10.64-9.52 17.35-9.52 5.2 0 8.24 1.54 10 3.46-4.09 2.66-5.9 6-6.32 7.77-.64 2.62.25 5.59 2.42 6.63s7.72.89 9.49-7.11a14.59 14.59 0 0 0 .36-3.82.52.52 0 0 0-.67-.48 18.4 18.4 0 0 0-2.8 1.12.72.72 0 0 0-.39.71 6 6 0 0 1-.14 2.18c-1 3-2.8 4.44-4.06 4.38-1.65-.08-1.4-2.16-1.25-2.81a9.91 9.91 0 0 1 4.41-5.37l.58-.36a17.83 17.83 0 0 1 4-1.66l.24-.07a30.33 30.33 0 0 1 8.21-1c11.73 0 18.64 5.71 34.08 7 1.55.13 3.06.21 4.53.25a298.92 298.92 0 0 0-11.49 29.11z" transform="translate(-8.88 -4.55)" fill="#fff"/><path d="M76.92 156.46a3.46 3.46 0 0 1 2.47.95.19.19 0 0 1 0 .29l-.62.64a.16.16 0 0 1-.26 0 2.41 2.41 0 0 0-1.57-.6 2.37 2.37 0 0 0 0 4.74 2.45 2.45 0 0 0 1.56-.58.19.19 0 0 1 .26 0l.63.65a.19.19 0 0 1 0 .28 3.51 3.51 0 0 1-2.48 1 3.67 3.67 0 1 1 .01-7.37zM82.57 156.76a.19.19 0 0 1 .19-.19h2.92a2.21 2.21 0 0 1 2.23 2.19 2.25 2.25 0 0 1-1.51 2.06l1.4 2.59a.19.19 0 0 1-.17.3h-1.08a.18.18 0 0 1-.16-.09l-1.39-2.71h-1.1v2.6a.2.2 0 0 1-.19.19h-.94a.19.19 0 0 1-.19-.19v-6.76zm3 3.06a1 1 0 0 0 1-1 1 1 0 0 0-1-1h-1.66v2h1.66zM91.06 156.76a.19.19 0 0 1 .19-.19h4.15a.19.19 0 0 1 .19.19v.84a.19.19 0 0 1-.19.19h-3v1.67h2.5a.2.2 0 0 1 .19.19v.85a.19.19 0 0 1-.19.19h-2.52v1.79h3a.19.19 0 0 1 .19.19v.84a.19.19 0 0 1-.19.19h-4.13a.19.19 0 0 1-.19-.19v-6.76zM98.07 163.45l3.17-6.87a.18.18 0 0 1 .17-.11h.1a.17.17 0 0 1 .17.11l3.14 6.87a.18.18 0 0 1-.17.27h-.89a.29.29 0 0 1-.3-.2l-.5-1.1h-3.03l-.5 1.1a.31.31 0 0 1-.3.2h-.89a.18.18 0 0 1-.17-.27zm4.41-2.17l-1-2.25-1 2.25h2.05zM108 157.79h-1.56a.19.19 0 0 1-.19-.19v-.84a.19.19 0 0 1 .19-.19h4.46a.19.19 0 0 1 .19.19v.84a.19.19 0 0 1-.19.19h-1.56v5.73a.2.2 0 0 1-.19.19h-.95a.2.2 0 0 1-.19-.19v-5.73zM113.94 156.76a.2.2 0 0 1 .19-.19h.95a.2.2 0 0 1 .19.19v6.76a.2.2 0 0 1-.19.19h-.95a.2.2 0 0 1-.19-.19v-6.76zM118 156.83a.18.18 0 0 1 .17-.27h1a.19.19 0 0 1 .17.11l2 4.39h.07l2-4.39a.19.19 0 0 1 .17-.11h1a.18.18 0 0 1 .17.27l-3.16 6.87a.18.18 0 0 1-.17.11h-.1a.18.18 0 0 1-.17-.11zM127.17 156.76a.19.19 0 0 1 .19-.19h4.15a.19.19 0 0 1 .19.19v.84a.19.19 0 0 1-.19.19h-3v1.67h2.49a.2.2 0 0 1 .19.19v.85a.19.19 0 0 1-.19.19h-2.5v1.79h3a.19.19 0 0 1 .19.19v.84a.19.19 0 0 1-.19.19h-4.15a.19.19 0 0 1-.19-.19v-6.76z" transform="translate(-8.88 -4.55)" fill="#2ab196"/><g opacity=".34" stroke="#2ab196" stroke-linecap="round" stroke-linejoin="round" stroke-width=".697" fill="none"><path d="M71.7 59.81h-71.26l21.79-34.84 9.54 9.48 4.15-4.7 8.95 8.63 5.25-13.15 21.58 34.58zm-35.63-58.47l12.78 21.67-4.8 11.67-8.17-7.88-4.11 4.65-8.36-8.32 12.66-21.79zm0 5.61l-9.1 15.73 4.67 4.64 4.08-4.62 7.3 7 2.68-6.5-9.58-16.25zM174.68 260.14h-72.49l18.84-29.62 11.25-2.29 5.64 8.22 5.9-8.1 12.53 2.9 18.33 28.95zm-36.2-58.53l16.19 26.84-11.67-2.44-5.08 6.86-4.8-6.85-10.61 2.23 16-26.64zm0 5.51l-10.22 17 6.06-1.27 3.65 5.17 3.82-5.16 7.07 1.48-10.38-17.21zM102.75 60.8l19.78-33.35c.64.79 1.27 1.58 1.9 2.38l-16.68 28.12h61.37l-14-23.67c.24-.12.5-.28.77-.45.57-.37 1.21-.83 1.6-1.13l16.63 28.1h-71.37zm38.85-33.64c-3.57-.34-4.8 9-8.27 8.49-2.61-.68-7.32-7.23-9.7-10.12l14.81-25.18 18.07 30.59c-.32.25-1 .78-1.66 1.18-4.34 2.79-10.81-4.73-13.24-5zM.35 260.26l14-22.92h3.33l-12.26 20.11h61.32l-10-16.51 4.25 1.51 10.8 17.8h-71.44zm44.49-26l-6.11 7.26-6.71-7.07-5.29 5-4.7-4.15h-6.48l20.57-33.85 23.16 38.18-14.43-5.38zM273.77 59.2h-71.65l19.72-31.1 8.51-2.13 2.35 7.66 6.6-6.73 7.45 9.55 1.43-10.24h4.62l21 33zm-35.84-57.25l14 22.19h-5.44l-1 7.17-6-7.48-6 5.86-1.88-6.12-8.61 2.22 14.93-23.84zm0 5.34l-8.71 14 4.33-1.12 1.3 4.24 4.86-4.78 3.85 4.78.42-3.1h2.77l-8.83-14zM477.21 59.81h-71.27l21.79-34.85 9.54 9.49 4.15-4.7 8.95 8.63 5.29-13.14 21.54 34.58zm-35.64-58.47l12.78 21.67-4.8 11.67-8.17-7.88-4.11 4.65-8.36-8.32 12.66-21.8zm0 5.61l-9.11 15.73 4.66 4.64 4.08-4.62 7.3 7 2.68-6.5-9.6-16.25zM477.12 159.88h-71.1l18.37-29.43 8.33-2.15 1.92 8.09 7.22-5.68 9.51 10.87.88-9.87 9.35 3.17 15.54 25zm-35.56-58.3l18.29 30.59-9.4-3.28-.76 7.82-7.6-8.83-6.17 4.77-1.5-6.74-8.38 1.91 15.52-26.24zm0 5.56l-9.71 16.43 4.71-1.07 1.15 5.16 4.76-3.68 5 5.83.46-4.8 5.45 1.9-11.85-19.77z"/><path d="M282.62 164.8h-71.67l35.55-59.17 36.12 59.17zm-36.07-53.54l-13.94 24.3a3.85 3.85 0 0 0 1.85-.3 14.31 14.31 0 0 0 3.79-2.53l2-1.71.36 2.59.7 5c2.26-.5 3.58-2.79 4.76-4.85 1.42-2.47 2.7-4.69 5.31-4.8 1.36-.05 2.07 1.06 3 2.59 1.31 2.07 3.36 5.29 7.65 5.6l-15.51-25.9z" transform="translate(-8.88 -4.55)"/><path d="M340.3 201.62l11.2 19.54-5.69 4.63-3.52-2.08-4.91 6.45-8.2-9.38 11.11-19.17zm0 5.66l-7.62 13.17 4.55 5.21 4.33-5.69 4 2.36 2.27-1.85-7.57-13.21zm35.67 52.84h-71.3l23.45-37.42 9.44 10.43 5.3-6.87 3.24 1.92 6.62-5.28 23.23 37.24zM580.18 260.14h-72.48l18.84-29.62 11.25-2.29 5.63 8.22 5.9-8.1 12.53 2.9 18.33 28.95zm-36.2-58.53l16.19 26.84-11.67-2.44-5.08 6.86-4.84-6.85-10.61 2.23 16-26.64zm0 5.51l-10.22 17 6.06-1.27 3.65 5.17 3.82-5.16 7.07 1.48-10.38-17.21z"/><path d="M313.44 64l9-14.54a37.2 37.2 0 0 0 4.9-2.58l-8.83 14.24h61.27l-7.61-12.31 5.68 3.78 7 11.37h-71.41zm56.21-19.32l-12.93-12.39c-.76-.73-1.77 9.58-2.82 9.37l-4.9-14.87-4.69 9.44c-.35.79-3-5.94-3-5.94s-4.09 5.1-7.57 8.72a51.36 51.36 0 0 0-3.74 3.68c-.38.3-.78.59-1.2.89a37.49 37.49 0 0 1-4.39 2.73l24.77-40.08 26.14 42.27-5.68-3.79z" transform="translate(-8.88 -4.55)"/><path d="M508.26 60.8l19.78-33.35c.64.79 1.27 1.58 1.9 2.38l-16.69 28.12h61.39l-14-23.67c.24-.12.5-.28.77-.45.57-.37 1.21-.83 1.6-1.13l16.57 28.1h-71.32zm38.86-33.64c-3.57-.34-4.8 9-8.27 8.49-2.61-.68-7.32-7.23-9.7-10.12l14.79-25.18 18.07 30.59c-.32.25-1 .78-1.66 1.18-4.34 2.79-10.81-4.73-13.24-5zM508.2 159.61l10.92-17.64 2 2.16-7.84 12.63h61.27l-12.5-20.31 2.61-1.17 15 24.3h-71.46zm55.39-26l-19.62 8.79-8.42-6.85-10 10.68-5.33-6 23.68-38.34 19.65 31.73zM304.59 160.4l11.49-19 5.42-3.46-11.86 19.61h61.34l-16.62-27.62 1.63-2.8 20 33.27h-71.4zm47.28-29.38l-3.83-2.42-3.26 4.68-5.09-5.9-3.87 7.13-4.07-5.5-13.3 8.44 21.85-36.41 14.51 24.11-2.95 5.85z"/><path d="M690.42 164.8h-71.67l35.55-59.17 36.12 59.17zm-36.07-53.54l-13.94 24.3a3.85 3.85 0 0 0 1.85-.3 14.31 14.31 0 0 0 3.79-2.53l2-1.71.36 2.59.7 5c2.26-.5 3.58-2.79 4.76-4.85 1.42-2.47 2.7-4.69 5.31-4.8 1.36-.05 2.07 1.06 3 2.59 1.31 2.07 3.36 5.29 7.65 5.6l-15.51-25.9z" transform="translate(-8.88 -4.55)"/><path d="M405.86 260.26l14-22.92h3.26l-12.2 20.11h61.32l-10-16.51 4.26 1.56 10.8 17.8h-71.44zm44.49-26l-6.11 7.26-6.72-7.07-5.29 5-4.7-4.15h-6.48l20.6-33.85 23.16 38.18-14.46-5.43zM201.21 261.45l11.53-19.14 16.38-13.65 9.51 12.66 7.49-12.87 7.73 6.72 2-5.11 18.81 31.39h-73.45zm16-26.59l20.71-34.51 16.07 26.66-1.35 3.39-7.3-6.35-7.08 12.16-8.74-11.63-12.3 10.26zM679.27 59.2h-71.67l19.72-31.1 8.51-2.13 2.35 7.66 6.6-6.73 7.48 9.55 1.43-10.24h4.62l21 33zm-35.83-57.25l14 22.19h-5.44l-1 7.17-6-7.48-6 5.86-1.88-6.11-8.61 2.22 14.93-23.85zm0 5.34l-8.71 14 4.33-1.12 1.3 4.24 4.86-4.78 3.9 4.76.42-3.1h2.77l-8.83-14zM606.71 261.45l11.53-19.14 16.34-13.63 9.54 12.64 7.5-12.89 7.73 6.72 2-5.11 18.77 31.41h-73.41zm16-26.59l20.71-34.51 16.07 26.66-1.37 3.36-7.3-6.35-7.08 12.16-8.74-11.63-12.28 10.29z"/></g></svg>