<svg xmlns="http://www.w3.org/2000/svg" viewBox="0 0 20 20"><title>instagram</title><path d="M19.76 10v7.48a2.11 2.11 0 0 1-.13.78 2.23 2.23 0 0 1-1.74 1.47 1.94 1.94 0 0 1-.38 0h-15a2.18 2.18 0 0 1-1.93-1.1 2.11 2.11 0 0 1-.32-1.14v-14.959999999999999a2.26 2.26 0 0 1 .1-.75 2.24 2.24 0 0 1 1.7-1.5 1.4 1.4 0 0 1 .39 0h15a2.16 2.16 0 0 1 .82.14 2.22 2.22 0 0 1 1.43 1.72 2 2 0 0 1 0 .33v7.53zm-3.94-1.49a6 6 0 0 1-2.31 6.37 6 6 0 0 1-9.33-3.41 6.13 6.13 0 0 1-.16-1 6 6 0 0 1 0-1 8.67 8.67 0 0 1 .16-1h-1.64v8.29a.75.75 0 0 0 .57.7 1.1 1.1 0 0 0 .26 0h13.39a.74.74 0 0 0 .74-.73v-8.219999999999999h-1.68zm-2.07 1.49a3.75 3.75 0 1 0-3.75 3.75 3.74 3.74 0 0 0 3.75-3.75zm3.75-5.62v-1.13a.73.73 0 0 0-.15-.46.74.74 0 0 0-.62-.3h-2.25a.74.74 0 0 0-.71.62 1.32 1.32 0 0 0 0 .2v2.21a.74.74 0 0 0 .49.67.83.83 0 0 0 .31.05h2.23a.75.75 0 0 0 .62-.39.74.74 0 0 0 .09-.38c-.01-.36-.01-.72-.01-1.09z" fill="#2ab196"/></svg>