<svg xmlns="http://www.w3.org/2000/svg" viewBox="0 0 150 105"><title>logo</title><path d="M145.61 4.36a41.87 41.87 0 0 1-20.73 11.74 1.82 1.82 0 0 0-1.17.9c-.9 1.65-1.8 3.36-2.71 5.1a.51.51 0 0 0 .51.74c9.94-1.16 17.25-4.44 21.93-8.08 4.31-3.35 4.36-12.76 2.17-10.4zM129.3 38.23c-7.85 0-13.61 7-15.4 12.3a18.18 18.18 0 0 0-1 8 10.94 10.94 0 0 1-5.9 1.83c-5 0-2.75-7.1-1.45-10.29 1.57-3.84 16.92-37.17 24.31-46.33 2.41-3-5.8-1.83-8.29.84-1.65 1.77-4.4 6.74-7.46 13.11a79.42 79.42 0 0 1-8.82.08c-11.59-.52-19.41-5.57-31.4-5.57a29.44 29.44 0 0 0-10.26 1.67c-3.21-5-10.22-7-15.24-7-9.21 0-28.7 5.78-22.75 23.75 4.19 12.65 12.2 22 17.79 30.41-3 .62-6.51 1.22-10.56 1.84-20.87 3.26-28.97 11.01-29.87 22.64-.55 7.33 3.88 17.49 21.11 17.49 15.31 0 33-9.51 33-24.67 0-5.3-2-9.61-4.94-13.87a.91.91 0 0 0-1-.35c-1.31.38-2.76.75-4.39 1.12a.58.58 0 0 0-.38.84 22.64 22.64 0 0 1 3.11 10.65c0 11-12.65 20.18-24.46 20.5-9.55.26-15.58-3.6-16.63-10.64-.89-5.8 2.49-15.71 21.25-19.58 6.41-1.33 11.41-2.31 15.44-3.2 2.2-.49 4.11-.95 5.79-1.42 4.1-1.17 6.82-2.38 9.16-4.38a6.57 6.57 0 0 0 6.5 6.65 13.64 13.64 0 0 0 7.1-3.12 7.06 7.06 0 0 0 4 2.76c3 .7 6.39-.79 8.72-2.63.81 1.88 2.57 3 5.16 3a11.4 11.4 0 0 0 8.46-4.13 7.11 7.11 0 0 0 6.23 3.8c2.63 0 5.24-1.53 7.34-3.51 1 2 3.05 3.51 6.85 3.51a14 14 0 0 0 12.36-6.73.82.82 0 0 0-1.16-1.13c-2.35 1.69-5.74 3.64-8.91 3.64-5.62 0-4.46-6-3.17-9.16 2-5 10.12-12.36 12.18-8.28 1.21 2.4-4.09 7-8.9 9.53a3.73 3.73 0 0 0-2 2.67l-.06.38a.44.44 0 0 0 .49.51c3.28-.45 15.32-3.47 16.25-11.15.03.01.81-6.38-8.2-6.38zm-29.13 13.77a14.82 14.82 0 0 0-.83 6.17c-3.61 4.11-9.86 4.11-9.58.89.24-2.32 4.24-11.37 4.78-12.41s2.14-3.57-.18-3.32c-3.58.38-5.76 5.67-7.53 10.93a7.41 7.41 0 0 1-4.83 4.54c-3.7.95-6.06-1.08-2-9.4s12.48-8 13.23-8.14 1.5 0 2.06-.71c.86-1.14 2.52-2.92-2.13-2.64-16.88 1.09-20.16 13.97-20.77 17.48a8.38 8.38 0 0 0 .24 4.17 13 13 0 0 1-4.34 1.73c-4.34.74-4-4.59-3.39-7.09 1.32-5.3 5.95-19.91 15.1-30.64 1.75-2-5.22-2-7.12-.11-4.35 4.42-9.69 16.63-12.27 30.55-3 2.65-6.66 4.41-11.91 5.86-5.3-6.65-11.89-14-15.95-25.35-1.66-4.65-1.76-8.3-.33-12.5 2.09-6.12 10.51-9.41 17.15-9.41 5.14 0 8.14 1.52 9.86 3.42-4 2.63-5.83 6-6.24 7.68-.63 2.59.25 5.52 2.39 6.55s7.63.88 9.38-7a14.42 14.42 0 0 0 .35-3.77.51.51 0 0 0-.66-.48 18.19 18.19 0 0 0-2.77 1.1.71.71 0 0 0-.38.7 5.93 5.93 0 0 1-.14 2.15c-.95 3-2.77 4.39-4 4.33-1.63-.08-1.39-2.13-1.24-2.77a9.79 9.79 0 0 1 4.36-5.31l.52-.4a17.62 17.62 0 0 1 4-1.67l.24-.07a30 30 0 0 1 8.11-1c11.59 0 18.43 5.65 33.68 6.93 1.54.13 3 .21 4.48.25a295.43 295.43 0 0 0-11.34 28.76z" fill="#fff"/><path d="M68.92 70.69a3.41 3.41 0 0 1 2.44.94.19.19 0 0 1 0 .28l-.62.64a.16.16 0 0 1-.25 0 2.39 2.39 0 0 0-1.55-.6 2.34 2.34 0 0 0 0 4.68 2.42 2.42 0 0 0 1.54-.58.19.19 0 0 1 .25 0l.63.65a.19.19 0 0 1 0 .27 3.46 3.46 0 0 1-2.45 1 3.63 3.63 0 1 1 .01-7.28zM74.51 71a.19.19 0 0 1 .19-.19h2.89a2.19 2.19 0 0 1 2.19 2.19 2.23 2.23 0 0 1-1.49 2l1.38 2.56a.19.19 0 0 1-.17.29h-1.06a.17.17 0 0 1-.16-.09l-1.34-2.67h-1.12v2.57a.2.2 0 0 1-.19.19h-.93a.19.19 0 0 1-.19-.19v-6.66zm3 3a1 1 0 0 0 1-1 1 1 0 0 0-1-1h-1.68v2h1.64zM82.89 71a.19.19 0 0 1 .19-.19h4.11a.19.19 0 0 1 .19.19v.83a.19.19 0 0 1-.19.19h-3v1.65h2.49a.2.2 0 0 1 .19.19v.84a.19.19 0 0 1-.19.19h-2.48v1.77h3a.19.19 0 0 1 .19.19v.83a.19.19 0 0 1-.19.19h-4.12a.19.19 0 0 1-.19-.19v-6.68zM89.82 77.59l3.18-6.79a.18.18 0 0 1 .17-.11h.1a.17.17 0 0 1 .17.11l3.11 6.79a.18.18 0 0 1-.17.26h-.92a.29.29 0 0 1-.29-.2l-.49-1.09h-3l-.49 1.09a.3.3 0 0 1-.29.2h-.9a.18.18 0 0 1-.18-.26zm4.36-2.15l-1-2.22-1 2.22h2zM99.59 72h-1.59a.19.19 0 0 1-.19-.19v-.81a.19.19 0 0 1 .19-.21h4.41a.19.19 0 0 1 .19.19v.83a.19.19 0 0 1-.19.19h-1.54v5.66a.2.2 0 0 1-.19.19h-.9a.2.2 0 0 1-.19-.19v-5.66zM105.51 71a.2.2 0 0 1 .19-.19h.94a.2.2 0 0 1 .19.19v6.68a.2.2 0 0 1-.19.19h-.94a.2.2 0 0 1-.19-.19v-6.68zM109.52 71.05a.18.18 0 0 1 .17-.26h1a.19.19 0 0 1 .17.11l1.94 4.34h.07l1.94-4.34a.19.19 0 0 1 .17-.11h1a.18.18 0 0 1 .17.26l-3.13 6.79a.18.18 0 0 1-.17.11h-.1a.18.18 0 0 1-.17-.11zM118.59 71a.19.19 0 0 1 .19-.19h4.11a.19.19 0 0 1 .19.19v.83a.19.19 0 0 1-.19.19h-3v1.65h2.49a.2.2 0 0 1 .19.19v.84a.19.19 0 0 1-.19.19h-2.48v1.77h3a.19.19 0 0 1 .19.19v.83a.19.19 0 0 1-.19.19h-4.11a.19.19 0 0 1-.19-.19v-6.68z" fill="#2ab196"/></svg>